<?xml version="1.0" encoding="UTF-8"?>
<svg xmlns="http://www.w3.org/2000/svg" xmlns:xlink="http://www.w3.org/1999/xlink" width="205pt" height="144pt" viewBox="0 0 205 144" version="1.1">
<g id="surface66924">
<rect x="0" y="0" width="205" height="144" style="fill:rgb(100%,100%,100%);fill-opacity:1;stroke:none;"/>
<path style="fill-rule:evenodd;fill:rgb(100%,100%,100%);fill-opacity:1;stroke-width:0.1;stroke-linecap:butt;stroke-linejoin:miter;stroke:rgb(0%,0%,0%);stroke-opacity:1;stroke-miterlimit:10;" d="M 7.7214 5.15 L 12.828626 5.15 L 13.849915 6.825 L 12.828626 8.5 L 7.7214 8.5 L 6.699915 6.825 L 7.7214 5.15 " transform="matrix(20,0,0,20,-104.763932,-102)"/>
<path style="fill:none;stroke-width:0.1;stroke-linecap:butt;stroke-linejoin:miter;stroke:rgb(0%,0%,0%);stroke-opacity:1;stroke-miterlimit:10;" d="M 13.849915 6.825 L 15.149915 6.825 L 15.149915 11.313281 " transform="matrix(20,0,0,20,-104.763932,-102)"/>
<path style="fill-rule:evenodd;fill:rgb(0%,0%,0%);fill-opacity:1;stroke-width:0.1;stroke-linecap:butt;stroke-linejoin:miter;stroke:rgb(0%,0%,0%);stroke-opacity:1;stroke-miterlimit:10;" d="M 15.149915 11.688281 L 14.899915 11.188281 L 15.149915 11.313281 L 15.399915 11.188281 Z M 15.149915 11.688281 " transform="matrix(20,0,0,20,-104.763932,-102)"/>
<path style="fill:none;stroke-width:0.1;stroke-linecap:butt;stroke-linejoin:miter;stroke:rgb(0%,0%,0%);stroke-opacity:1;stroke-miterlimit:10;" d="M 12.828626 8.5 L 12.89054 11.713281 " transform="matrix(20,0,0,20,-104.763932,-102)"/>
<path style="fill-rule:evenodd;fill:rgb(0%,0%,0%);fill-opacity:1;stroke-width:0.1;stroke-linecap:butt;stroke-linejoin:miter;stroke:rgb(0%,0%,0%);stroke-opacity:1;stroke-miterlimit:10;" d="M 12.897767 12.088281 L 12.638197 11.593164 L 12.89054 11.713281 L 13.138197 11.583398 Z M 12.897767 12.088281 " transform="matrix(20,0,0,20,-104.763932,-102)"/>
<path style="fill:none;stroke-width:0.1;stroke-linecap:butt;stroke-linejoin:miter;stroke:rgb(0%,0%,0%);stroke-opacity:1;stroke-miterlimit:10;" d="M 7.7214 8.5 L 7.70304 11.463281 " transform="matrix(20,0,0,20,-104.763932,-102)"/>
<path style="fill-rule:evenodd;fill:rgb(0%,0%,0%);fill-opacity:1;stroke-width:0.1;stroke-linecap:butt;stroke-linejoin:miter;stroke:rgb(0%,0%,0%);stroke-opacity:1;stroke-miterlimit:10;" d="M 7.700697 11.838281 L 7.453822 11.336719 L 7.70304 11.463281 L 7.953822 11.339844 Z M 7.700697 11.838281 " transform="matrix(20,0,0,20,-104.763932,-102)"/>
<path style="fill:none;stroke-width:0.1;stroke-linecap:butt;stroke-linejoin:miter;stroke:rgb(0%,0%,0%);stroke-opacity:1;stroke-miterlimit:10;" d="M 6.699915 6.825 L 5.599915 6.825 L 5.599915 11.163281 " transform="matrix(20,0,0,20,-104.763932,-102)"/>
<path style="fill-rule:evenodd;fill:rgb(0%,0%,0%);fill-opacity:1;stroke-width:0.1;stroke-linecap:butt;stroke-linejoin:miter;stroke:rgb(0%,0%,0%);stroke-opacity:1;stroke-miterlimit:10;" d="M 5.599915 11.538281 L 5.349915 11.038281 L 5.599915 11.163281 L 5.849915 11.038281 Z M 5.599915 11.538281 " transform="matrix(20,0,0,20,-104.763932,-102)"/>
</g>
</svg>
