<?xml version="1.0"?>
<svg width="401" height="88" xmlns="http://www.w3.org/2000/svg" xmlns:svg="http://www.w3.org/2000/svg">
 <!-- Created with SVG-edit - http://svg-edit.googlecode.com/ -->

 <g>
  <title>Layer 1</title>
  <metadata transform="matrix(0.11298637758514563,0,0,0.11298637758514563,0,0) " id="svg_54">image/svg+xml</metadata>
  <g stroke="null" id="svg_57">
   <path stroke="null" d="m39.658325,7.548712c15.614418,-2.389253 31.258575,-4.639712 46.902725,-6.810859c0.009918,13.710943 0,27.411977 0.009918,41.122918c-15.634239,0.059486 -31.268486,0.297417 -46.912643,0.346989c-0.009911,-11.559626 -0.009911,-23.109337 0,-34.659058l0,0.00001z" id="svg_53" fill="#0078d6"/>
   <path stroke="null" d="m0.002663,13.080676c11.757901,-1.814247 23.565374,-3.380645 35.372852,-4.857817c0.009911,11.371261 0.009911,22.732606 0.019829,34.103866c-11.797562,-0.009918 -23.595124,0.168541 -35.392681,0.138798l0,-29.384847l0,0z" id="svg_52" fill="#0078d6"/>
   <path stroke="null" d="m186.800644,14.994061c3.09314,-1.972869 7.048798,2.141408 5.244476,5.234548c-0.872437,2.270288 -4.064728,3.132797 -5.86908,1.46726c-2.260345,-1.536659 -1.943085,-5.621191 0.624603,-6.701808l0,0z" id="svg_51" fill="#0078d6"/>
   <path stroke="null" d="m267.807251,14.587591c1.982758,-0.009914 3.965546,-0.009914 5.948334,-0.009914c0,18.509279 0,37.008646 0,55.517935c-1.982788,0 -3.955627,0 -5.928528,0c0.009949,-2.012527 -0.029724,-4.025047 -0.168518,-6.037582c-4.292755,7.713028 -15.773041,9.418228 -22.33606,3.697891c-4.689285,-4.034966 -6.116898,-10.597977 -5.869034,-16.536415c0.049576,-6.027657 2.032349,-12.432049 6.830673,-16.36787c6.23587,-5.13541 17.289856,-4.837992 21.562805,2.706497c-0.079346,-7.663456 -0.009918,-15.316999 -0.039673,-22.970541m-12.808807,21.949411c-4.758652,0.753456 -7.980682,5.095749 -8.87294,9.586754c-1.169815,5.412998 -0.961655,11.678589 2.448746,16.278652c3.687958,4.897472 11.827301,5.006527 15.773041,0.376724c2.686676,-2.795727 3.450043,-6.800949 3.469879,-10.548409c0.029755,-3.95565 0.366821,-8.416908 -2.260376,-11.718246c-2.319885,-3.301334 -6.652252,-4.788418 -10.55835,-3.975475z" id="svg_50" fill="#0078d6"/>
   <path stroke="null" d="m112.971725,17.541937c2.230629,0.009916 4.461258,0.009916 6.701805,0.039658c3.479782,12.570843 6.909996,25.161516 10.399681,37.74227c0.743546,2.637104 1.298721,5.333687 1.625885,8.069935c3.628494,-15.435974 8.585449,-30.544773 12.749298,-45.851862c1.933212,0.009916 3.86644,0.009916 5.799622,0.019831c3.063416,10.895391 5.928543,21.840355 8.962189,32.745663c1.120285,4.342289 2.567719,8.625103 3.023758,13.116108c3.281494,-15.416138 7.960861,-30.524948 11.678589,-45.841944c2.200882,-0.029741 4.401764,-0.029741 6.602661,-0.029741c-4.798325,17.537716 -9.794952,35.02586 -14.65274,52.543758c-2.379379,0 -4.7686,0 -7.147964,0c-3.51944,-12.580769 -7.009125,-25.17144 -10.568222,-37.732372c-0.594833,-2.032351 -0.842682,-4.134102 -1.031052,-6.235849c-0.277573,1.814245 -0.535355,3.648321 -1.001297,5.422911c-3.598755,12.808781 -7.24707,25.597725 -10.746689,38.426331c-2.379349,0.128891 -4.758667,0.138802 -7.138016,0.11898c-5.105659,-17.507988 -10.171669,-35.035789 -15.257507,-52.553675l0,0l0,0l0,0z" id="svg_47" fill="#0078d6"/>
   <path stroke="null" d="m207.262955,38.49004c3.400482,-6.057404 11.331619,-8.843208 17.726089,-6.037575c5.085831,1.982784 6.979385,7.871651 7.138,12.888088c0.277618,8.248375 0.049591,16.506672 0.118973,24.755058c-1.982773,0 -3.965561,0 -5.948349,-0.009918c-0.089218,-7.921223 0.208206,-15.862267 -0.138779,-23.783489c-0.15863,-3.925903 -1.824173,-8.644936 -6.097061,-9.64624c-6.23587,-1.88364 -12.461792,3.737549 -12.660049,9.903999c-0.178436,7.841911 -0.009903,15.693729 -0.069382,23.535648c-1.982788,0 -3.965576,0 -5.948349,0c0.009888,-12.560936 0.009888,-25.111958 0,-37.672886c1.982773,0 3.975449,0 5.958237,0c-0.009888,2.022442 -0.019821,4.044876 -0.079315,6.067314l-0.000015,0z" id="svg_46" fill="#0078d6"/>
   <path stroke="null" d="m296.894653,31.490816c5.303955,-0.465954 11.182892,0.366816 15.168274,4.203501c4.500946,4.153931 5.839325,10.607887 5.591492,16.506668c-0.069427,5.303944 -2.032379,10.687199 -5.91864,14.385098c-8.109558,7.375946 -23.168793,5.759979 -28.314148,-4.381954c-4.044891,-8.496223 -3.231903,-20.254135 4.153961,-26.708092c2.647003,-2.240543 5.997925,-3.261677 9.319061,-4.00522m-1.070679,5.393171c-8.734283,2.686668 -10.211426,14.097584 -7.485138,21.602421c2.171082,6.662151 10.637604,9.616497 16.715027,6.503529c4.114166,-1.893559 5.987946,-6.533272 6.384521,-10.786339c0.446014,-4.966873 0.049591,-10.597977 -3.459991,-14.474316c-2.974182,-3.350903 -8.010529,-4.074623 -12.154419,-2.845295z" id="svg_45" fill="#0078d6"/>
   <path stroke="null" d="m387.101379,31.470991c3.717712,-0.257765 7.504852,0.099134 11.004425,1.46726c0.971527,1.843987 0.21814,4.262978 0.446106,6.334988c-4.173737,-2.607357 -9.923767,-4.2729 -14.454468,-1.615971c-3.103058,1.685368 -3.25174,6.672066 -0.228027,8.52597c4.332397,2.805634 9.834625,3.539268 13.681213,7.14793c4.243164,4.084538 3.212097,11.936356 -1.754791,14.999756c-6.037537,3.846596 -13.988495,3.469872 -20.313599,0.535355c0,-2.220726 -0.009918,-4.441437 -0.04953,-6.662151c4.500885,3.43021 10.825958,5.333683 16.209229,2.894863c3.142731,-1.576317 3.301331,-6.404388 0.535339,-8.436745c-4.332367,-3.19228 -10.270813,-3.697887 -14.117432,-7.683285c-3.796997,-3.826771 -3.112946,-10.86565 1.1203,-14.107502c2.190979,-2.012524 5.155212,-2.617275 7.921234,-3.400469z" id="svg_44" fill="#0078d6"/>
   <path stroke="null" d="m185.521744,32.432636c1.982788,-0.009911 3.965561,-0.009911 5.948364,-0.009911c0,12.560928 0,25.11195 0,37.672886c-1.982803,0 -3.965576,0 -5.948364,0c0,-12.560936 0.009903,-25.111958 0,-37.662975z" id="svg_43" fill="#0078d6"/>
   <path stroke="null" d="m320.132904,32.422726c2.062073,0 4.134064,0 6.206085,0c2.458649,8.972092 4.837982,17.964012 7.346191,26.926189c0.505615,1.685371 0.69397,3.430218 0.872467,5.175064c2.805634,-10.806164 6.354828,-21.414055 9.537109,-32.111172c1.804413,0.009918 3.608704,0.019829 5.422943,0.029747c2.726318,10.707027 6.116882,21.255432 8.377289,32.071522c2.329742,-10.756607 5.641022,-21.275269 8.228516,-31.972389c1.992737,-0.099133 3.985443,-0.12888 5.988007,-0.148705c-3.777161,12.560928 -7.395752,25.161518 -11.19281,37.702629c-2.062073,0 -4.114288,0 -6.166473,0c-2.676697,-10.211342 -6.146576,-20.2244 -8.317719,-30.544785c-2.587524,10.310474 -6.176392,20.343353 -9.130707,30.544785c-1.992737,0 -3.975464,0 -5.958282,0c-3.7276,-12.560932 -7.534576,-25.092129 -11.212616,-37.672886l0,0z" id="svg_42" fill="#0078d6"/>
   <path stroke="null" d="m0.002663,46.044445c11.787644,-0.039658 23.575291,0.148705 35.362934,0.12888c0,11.401001 0.029747,22.80201 0.009918,34.203011c-11.777733,-1.74485 -23.575295,-3.271599 -35.372852,-4.867737l0,-29.464153z" id="svg_41" fill="#0078d6"/>
   <path stroke="null" d="m39.588932,46.500484c15.663986,0 31.31805,0 46.972118,0c0.019829,13.671288 0,27.342579 0,41.023785c-15.61441,-2.339684 -31.258568,-4.510834 -46.902725,-6.632408c-0.019829,-11.460487 -0.049568,-22.920979 -0.069393,-34.391376z" id="svg_40" fill="#0078d6"/>
  </g>
 </g>
</svg>